<?xml version="1.0" encoding="utf-8"?>
<!-- Generator: Adobe Illustrator 21.1.0, SVG Export Plug-In . SVG Version: 6.00 Build 0)  -->
<svg version="1.1" id="Слой_1" xmlns="http://www.w3.org/2000/svg" xmlns:xlink="http://www.w3.org/1999/xlink" x="0px" y="0px"
	 viewBox="0 0 153 28" enable-background="new 0 0 153 28" xml:space="preserve">
<path fill="#FFFFFF" d="M44.98,6.79h4.44v20.47h-4.44v-5.77l-0.72,0l-4.77,5.77h-2.38V6.79h4.44v3.11c0,2.12-0.12,5.72-0.21,8.21v0
	l0,0v0v0l-0.03,0.83h0.73l2.94-3.88V6.79z M29.26,6.79l5.42,20.47h-4.53l-0.89-3.6h-6.91l-0.89,3.61h-4.53l5.42-20.47H29.26z
	 M28.29,19.9l-2.1-8.64h-0.81l-2.06,8.64H28.29z M74.24,17.04c0,4.91-3.88,8.35-8.73,8.35v2.44h-4.32v-2.46
	c-4.85,0-8.73-3.44-8.73-8.35c0-4.91,3.88-8.35,8.73-8.35V5.9h4.32v2.79C70.36,8.69,74.24,12.13,74.24,17.04z M61.19,12.24
	c-1.62,0-4.24,1.51-4.24,4.79c0,3.28,2.63,4.79,4.24,4.79V12.24z M69.75,17.04c0-3.28-2.63-4.79-4.24-4.79v9.57
	C67.12,21.82,69.75,20.32,69.75,17.04z M2.87,14.62c0,4.09-0.53,8.15-2.87,9V28c5.46-0.57,7.15-5.4,7.15-12.61v-4.98h2.91v16.86
	h4.44V6.79H2.87V14.62z M47.12,0H45.5l-5.41,3.15v1.72h7.03V0z M153,13.55c0,4.18-3.15,6.92-7.27,6.92c-0.66,0-1.33-0.05-1.98-0.16
	v6.96h-4.49V6.88c0.11,0,0.42-0.03,0.87-0.07c1.11-0.1,3.06-0.26,4.67-0.26C149.53,6.55,153,8.8,153,13.55z M148.51,13.63
	c0-2.05-1.33-3.03-3.31-3.03c-0.44,0-1.22,0-1.46,0.04v5.78c0.47,0.17,0.96,0.25,1.46,0.24C147.14,16.66,148.51,15.6,148.51,13.63z
	 M122.17,6.79h-4.61l-2.99,10.03l-0.97,0V6.79h-4.4v20.47h4.4v-6.62h0.81l5.17,6.62h1.87v-4.75c-0.35-0.49-0.75-1.03-1.16-1.57
	c-0.61-0.83-1.23-1.67-1.72-2.36c0.53-1.55,1.24-3.81,1.7-5.36L122.17,6.79z M101.36,6.79l5.42,20.47h-4.53l-0.89-3.6h-6.91
	l-0.89,3.61h-4.53l5.42-20.47H101.36z M100.38,19.9l-2.1-8.64h-0.81l-2.06,8.64H100.38z M87.09,12.4V6.79h-1.94l-0.26,0.48
	c-0.85,1.57-1.92,3.53-2.65,5.01l-0.85,0.01c-0.82-1.65-2.02-3.86-2.92-5.5h-1.94v5.61l2.55,4.26l-2.9,4.95v5.65h1.94l3.27-6.22
	h0.85l3.27,6.22h1.94v-5.65l-2.9-4.95L87.09,12.4z M129.93,20.11h4.33v-3.94h-4.33v-5.29h5.26V6.79h-9.66v20.47h9.98v-4.09h-5.58
	V20.11z"/>
</svg>
