<?xml version="1.0" encoding="utf-8"?>
<!-- Generator: Adobe Illustrator 21.1.0, SVG Export Plug-In . SVG Version: 6.00 Build 0)  -->
<svg version="1.1" id="Слой_1" xmlns="http://www.w3.org/2000/svg" xmlns:xlink="http://www.w3.org/1999/xlink" x="0px" y="0px"
	 viewBox="0 0 317.87 121.79" enable-background="new 0 0 317.87 121.79" xml:space="preserve">
<path fill="#FEFEFE" d="M42.46,12.33c0,2.61-0.3,4.4-1.29,5.48c-1.81,1.99-4.44,2.81-8.27,2.81c-3.83,0-6.49-0.82-8.3-2.81
	c-1.02-1.1-1.26-2.9-1.26-5.48V0h4.6v12.22c0,3.61,1.13,5.11,4.96,5.11c3.82,0,4.93-1.5,4.93-5.11V0h4.63V12.33z M48.27,20.4h-4.9
	L52.67,0h4.91l9.38,20.4h-5.15l-2.02-4.86h-9.56L48.27,20.4z M51.73,11.91h6.56l-3.34-7.84L51.73,11.91z M77.06,20.4l4.1-15.23
	l4.69,15.23h5.66L98.31,0h-4.75l-4.74,15.68L83.89,0h-5.45l-4.29,15.68L69.06,0h-4.97l7.33,20.4H77.06z M102.66,18.61
	c2.15,1.59,4.21,1.79,6.86,1.79h7.82v-3.55h-7.6c-3.64,0-5.2-1.34-5.24-5.01h12.84V8.3h-12.81c0.19-3.21,1.86-4.74,5.2-4.74h7.6V0
	h-7.69c-7.07,0-10.35,3.36-10.35,10.57C99.31,14.26,100.41,16.93,102.66,18.61z M126.26,0h-4.84v20.4h4.84V0z M4.63,11.88h10.3v8.52
	h4.63V0h-4.63v8.26H4.63V0H0v20.4h4.63V11.88z M38.06,74.63v-35.5h-8.44L19.18,68.3L8.64,39.13H0.25v35.5h5.01V43.29l11.25,31.35
	h5.06l11.2-31.35v31.35H38.06z M42.79,66.92c-0.49-1.7-0.74-3.6-0.74-5.69c0-1.81,0.28-3.55,0.82-5.22c0.55-1.67,1.31-3.13,2.3-4.39
	c0.99-1.26,2.2-2.26,3.63-3.01c1.43-0.75,3.03-1.12,4.81-1.12c1.91,0,3.54,0.35,4.89,1.06c1.35,0.71,2.46,1.69,3.33,2.93
	c0.87,1.24,1.5,2.69,1.89,4.34c0.39,1.65,0.59,3.42,0.59,5.3v1.6H47.32c0,1.24,0.18,2.39,0.54,3.46c0.36,1.07,0.88,1.99,1.56,2.77
	c0.68,0.78,1.51,1.4,2.51,1.86c0.99,0.46,2.1,0.69,3.32,0.69c1.16,0,2.43-0.16,3.81-0.48c1.38-0.32,2.58-0.78,3.61-1.38l0.31,4.15
	c-1.3,0.5-2.69,0.86-4.2,1.09c-1.5,0.23-2.95,0.35-4.35,0.35c-2.12,0-3.95-0.34-5.5-1.01c-1.55-0.68-2.84-1.63-3.87-2.88
	C44.04,70.09,43.28,68.62,42.79,66.92z M47.27,59.41h12.12c0-0.96-0.09-1.92-0.28-2.9c-0.19-0.98-0.5-1.86-0.95-2.66
	c-0.44-0.8-1.03-1.45-1.77-1.94c-0.73-0.5-1.64-0.75-2.73-0.75c-1.09,0-2.04,0.26-2.84,0.8c-0.8,0.53-1.47,1.21-2,2.05
	c-0.53,0.83-0.92,1.73-1.18,2.68C47.39,57.65,47.27,58.56,47.27,59.41z M86.76,70.22c-0.78,1.7-1.87,2.96-3.27,3.78
	c-1.4,0.82-2.98,1.23-4.76,1.23c-1.94,0-3.58-0.4-4.91-1.2c-1.33-0.8-2.42-1.85-3.27-3.17c-0.86-1.31-1.47-2.8-1.84-4.47
	c-0.37-1.67-0.56-3.39-0.56-5.16c0-1.77,0.19-3.49,0.56-5.14c0.38-1.65,0.99-3.12,1.84-4.39c0.85-1.28,1.94-2.3,3.27-3.06
	c1.33-0.76,2.97-1.14,4.91-1.14c1.6,0,3.13,0.43,4.58,1.28c1.45,0.85,2.5,2.07,3.15,3.67V36.26h5.11v30.39
	c0,1.49,0.03,2.88,0.08,4.18c0.05,1.29,0.11,2.56,0.18,3.8h-4.76L86.76,70.22z M86.61,61.28c0-1.07-0.11-2.16-0.33-3.3
	c-0.22-1.13-0.59-2.18-1.1-3.14c-0.51-0.96-1.19-1.74-2.02-2.34c-0.84-0.6-1.87-0.91-3.1-0.91c-1.33,0-2.41,0.29-3.22,0.88
	c-0.82,0.59-1.47,1.35-1.95,2.29c-0.48,0.94-0.8,1.99-0.97,3.14c-0.17,1.15-0.25,2.28-0.25,3.38c0,1.1,0.09,2.23,0.28,3.38
	c0.19,1.15,0.52,2.21,1,3.17c0.48,0.96,1.13,1.75,1.97,2.37c0.84,0.62,1.9,0.93,3.2,0.93c1.23,0,2.26-0.32,3.1-0.96
	c0.84-0.64,1.51-1.44,2.02-2.4c0.51-0.96,0.87-2.01,1.07-3.17C86.5,63.45,86.61,62.34,86.61,61.28z M95.35,74.64h5.12V48.02h-5.12
	V74.64z M100.47,37.38h-5.12v5.16h5.12V37.38z M109.78,74.77c-1.02-0.3-1.92-0.76-2.68-1.38c-0.77-0.62-1.38-1.41-1.84-2.37
	c-0.46-0.96-0.69-2.09-0.69-3.4c0-1.74,0.37-3.2,1.1-4.39c0.73-1.19,1.73-2.15,2.99-2.87c1.26-0.73,2.73-1.25,4.43-1.57
	c1.68-0.32,3.47-0.48,5.34-0.48h1.23c0.48,0,0.9,0.02,1.28,0.05v-1.11c0-1.95-0.47-3.44-1.41-4.47c-0.94-1.03-2.41-1.54-4.42-1.54
	c-1.3,0-2.58,0.17-3.86,0.51c-1.28,0.34-2.5,0.88-3.66,1.62l-0.31-4.1c1.19-0.49,2.55-0.91,4.07-1.25c1.52-0.34,2.92-0.5,4.22-0.5
	c3.31,0,5.87,0.79,7.68,2.37c1.8,1.58,2.71,4.16,2.71,7.74v11.12c0,1.14,0.02,2.18,0.07,3.12c0.05,0.94,0.13,1.87,0.23,2.79h-5.02
	l-0.16-4.2c-0.78,1.49-1.91,2.66-3.37,3.51c-1.47,0.85-3.02,1.28-4.66,1.28C111.89,75.22,110.81,75.07,109.78,74.77z M109.63,67.29
	c0,1.45,0.48,2.52,1.43,3.2c0.95,0.67,2.07,1.01,3.33,1.01c1.22,0,2.26-0.23,3.09-0.69c0.84-0.46,1.51-1.08,2.03-1.86
	c0.51-0.78,0.87-1.68,1.1-2.69c0.22-1.01,0.34-2.08,0.34-3.22v-1.44h-0.82c-1.02,0-2.15,0.04-3.37,0.13
	c-1.23,0.09-2.38,0.33-3.43,0.72c-1.06,0.39-1.94,0.97-2.63,1.73C109.98,64.94,109.63,65.98,109.63,67.29z M152.81,49.67
	c0,1.85-0.31,3.44-0.92,4.79c-0.61,1.35-1.44,2.47-2.48,3.35c-1.04,0.89-2.24,1.55-3.62,1.99c-1.38,0.44-2.83,0.67-4.36,0.67h-5.76
	v14.16h-5.53v-35.5h11.46c1.57,0,3.05,0.22,4.43,0.66c1.38,0.44,2.57,1.11,3.55,2c0.99,0.89,1.77,1.99,2.36,3.3
	C152.51,46.41,152.81,47.93,152.81,49.67z M147.13,49.75c0-2.21-0.65-3.83-1.96-4.86c-1.3-1.03-2.94-1.55-4.91-1.55h-4.59v12.93h2.6
	c1.12,0,2.21-0.06,3.29-0.19c1.07-0.13,2.02-0.41,2.85-0.86c0.83-0.44,1.49-1.1,1.99-1.98C146.88,52.38,147.13,51.21,147.13,49.75z
	 M173.96,71.84c0.05,0.94,0.13,1.87,0.23,2.79h-5.01l-0.15-4.2c-0.78,1.49-1.91,2.66-3.38,3.51c-1.46,0.85-3.02,1.28-4.66,1.28
	c-1.16,0-2.25-0.15-3.27-0.45c-1.02-0.3-1.92-0.76-2.68-1.38c-0.77-0.62-1.39-1.41-1.84-2.37c-0.46-0.96-0.69-2.09-0.69-3.4
	c0-1.74,0.36-3.2,1.1-4.39c0.73-1.19,1.73-2.15,2.99-2.87c1.26-0.73,2.74-1.25,4.43-1.57c1.69-0.32,3.47-0.48,5.35-0.48h1.22
	c0.48,0,0.91,0.02,1.28,0.05v-1.11c0-1.95-0.47-3.44-1.41-4.47c-0.94-1.03-2.41-1.54-4.43-1.54c-1.3,0-2.58,0.17-3.86,0.51
	c-1.28,0.34-2.5,0.88-3.66,1.62l-0.31-4.1c1.19-0.49,2.55-0.91,4.07-1.25c1.52-0.34,2.92-0.5,4.22-0.5c3.31,0,5.87,0.79,7.67,2.37
	c1.81,1.58,2.71,4.16,2.71,7.74v11.12C173.88,69.86,173.91,70.9,173.96,71.84z M168.87,61.59h-0.82c-1.02,0-2.15,0.04-3.37,0.13
	c-1.23,0.09-2.37,0.33-3.43,0.72c-1.06,0.39-1.94,0.97-2.64,1.73c-0.7,0.77-1.05,1.8-1.05,3.11c0,1.45,0.48,2.52,1.44,3.2
	c0.95,0.67,2.06,1.01,3.32,1.01c1.23,0,2.26-0.23,3.1-0.69c0.84-0.46,1.51-1.08,2.02-1.86c0.51-0.78,0.88-1.68,1.1-2.69
	c0.22-1.01,0.33-2.08,0.33-3.22V61.59z M201.97,74.63h-4.76l-0.31-4.42c-0.78,1.7-1.87,2.96-3.27,3.78
	c-1.4,0.82-2.98,1.23-4.76,1.23c-1.94,0-3.58-0.4-4.91-1.2c-1.33-0.8-2.42-1.85-3.27-3.17c-0.86-1.31-1.47-2.8-1.85-4.47
	c-0.37-1.67-0.56-3.39-0.56-5.16c0-1.77,0.19-3.49,0.56-5.14c0.38-1.65,0.99-3.12,1.85-4.39c0.85-1.28,1.94-2.3,3.27-3.06
	c1.33-0.76,2.97-1.14,4.91-1.14c1.61,0,3.13,0.43,4.58,1.28c1.45,0.85,2.49,2.07,3.15,3.67V36.26h5.12v30.39
	c0,1.49,0.02,2.88,0.08,4.18C201.84,72.12,201.9,73.39,201.97,74.63z M196.75,61.28c0-1.07-0.11-2.16-0.33-3.3
	c-0.22-1.13-0.59-2.18-1.1-3.14c-0.51-0.96-1.18-1.74-2.02-2.34c-0.83-0.6-1.87-0.91-3.1-0.91c-1.33,0-2.41,0.29-3.22,0.88
	c-0.82,0.59-1.47,1.35-1.95,2.29c-0.48,0.94-0.8,1.99-0.97,3.14c-0.17,1.15-0.25,2.28-0.25,3.38c0,1.1,0.09,2.23,0.28,3.38
	c0.19,1.15,0.52,2.21,1,3.17c0.48,0.96,1.14,1.75,1.97,2.37c0.84,0.62,1.9,0.93,3.2,0.93c1.23,0,2.26-0.32,3.1-0.96
	c0.83-0.64,1.51-1.44,2.02-2.4c0.51-0.96,0.87-2.01,1.07-3.17C196.65,63.45,196.75,62.34,196.75,61.28z M255.12,74.73h4.05V39.51
	h-6.41l-11.94,30.57l-12.04-30.57h-6.41v35.22h3.89V42.94l12.41,31.79h4.05l12.41-31.79V74.73z M275.26,75.31
	c1.79,0,3.48-0.26,5.08-0.76c1.6-0.51,3-1.26,4.21-2.25c1.21-0.98,2.16-2.21,2.86-3.67c0.7-1.46,1.05-3.14,1.05-5.04
	c0-1.69-0.3-3.19-0.89-4.49c-0.6-1.3-1.42-2.39-2.47-3.28c-1.05-0.88-2.28-1.54-3.68-1.98c-1.4-0.44-2.89-0.66-4.47-0.66
	c-0.84,0-1.68,0.05-2.52,0.13c-0.84,0.09-1.67,0.27-2.47,0.56l0.31-10.98h14.51v-3.38h-18.35l-0.37,18.27
	c1.47-0.49,2.79-0.84,3.97-1.06c1.17-0.21,2.32-0.31,3.44-0.31c1.23,0,2.37,0.14,3.42,0.42c1.05,0.28,1.97,0.72,2.76,1.32
	c0.79,0.6,1.41,1.36,1.87,2.3c0.46,0.93,0.68,2.07,0.68,3.41c0,1.3-0.25,2.46-0.76,3.46c-0.51,1.01-1.18,1.84-2.02,2.51
	c-0.84,0.67-1.81,1.17-2.92,1.5c-1.1,0.34-2.27,0.5-3.5,0.5c-1.3,0-2.58-0.12-3.84-0.37c-1.26-0.25-2.47-0.67-3.63-1.27l-0.32,3.86
	c1.23,0.49,2.55,0.83,3.95,1C272.56,75.22,273.93,75.31,275.26,75.31z M78.42,108.28h1.63v-1.69h-1.63V108.28z M180.92,101.84
	c-1.03,0-2.01,0.64-2.52,1.52h-0.04v-4.84h-2.65v13.64h2.65v-6.29c0-0.82,0.32-1.7,1.93-1.7c1.8,0,1.92,1.07,1.92,1.97v6.03h2.65
	v-6.8C184.86,102.82,183.27,101.84,180.92,101.84z M195.15,110.6c-0.02,0.45,0.24,0.9,0.58,1.2v0.36h-2.8
	c-0.19-0.25-0.3-0.66-0.28-1.01c-0.93,0.86-1.74,1.44-3.29,1.44c-2.08,0-3.1-1.16-3.03-3.13c0.06-1.42,0.63-2.81,2.97-3.2
	c0.99-0.04,2.05-0.26,2.67-0.47c0.47-0.17,0.7-0.66,0.66-1.14c0-0.63-0.53-0.92-1.74-0.92c-1.52,0-1.7,0.92-1.74,1.65h-2.5
	c0.04-3.24,2.84-3.53,4.24-3.53c1.02,0,1.91,0.17,2.42,0.37c1.02,0.41,1.84,1.23,1.84,2.84V110.6z M192.63,107.38
	c-0.76,0.45-1.78,0.41-2.46,0.54c-0.81,0.15-1.38,0.82-1.15,1.64c0.15,0.6,0.62,1.03,1.76,0.85c1.58-0.25,1.86-1.33,1.86-2.45
	V107.38z M201.47,102.39c-0.93,0.64-1.06,0.99-1.23,1.59h-0.04v-1.97h-2.65v10.14h2.65v-5.71c0.32-2.21,2.02-2.06,3.16-1.93v-2.67
	C202.53,101.71,201.93,102.05,201.47,102.39z M217.05,101.84c-2.16-0.24-2.95,0.58-3.59,1.48c-0.75-0.86-1.12-1.31-2.42-1.48
	c-1.55-0.21-2.31,0.48-3.14,1.68h-0.04v-1.52h-2.65v10.14h2.65v-6.21c0-1.25,0.87-1.85,1.8-1.83c0.83,0.02,1.3,0.35,1.45,1.07v6.98
	h2.65v-6.21c0-0.69,0.51-1.92,1.93-1.83c0.63,0.04,1.29,0.32,1.33,1.07v6.98h2.65v-7.04C219.67,103.49,219.1,102.14,217.05,101.84z
	 M230.08,110.6c-0.02,0.45,0.24,0.9,0.59,1.2v0.36h-2.8c-0.19-0.25-0.3-0.66-0.28-1.01c-0.93,0.86-1.74,1.44-3.29,1.44
	c-2.08,0-3.1-1.16-3.03-3.13c0.06-1.42,0.62-2.81,2.97-3.2c0.98-0.04,2.05-0.26,2.67-0.47c0.48-0.17,0.71-0.66,0.67-1.14
	c0-0.63-0.53-0.92-1.74-0.92c-1.52,0-1.71,0.92-1.74,1.65h-2.5c0.04-3.24,2.85-3.53,4.24-3.53c1.02,0,1.91,0.17,2.42,0.37
	c1.02,0.41,1.83,1.23,1.83,2.84V110.6z M227.57,107.38c-0.76,0.45-1.78,0.41-2.46,0.54c-0.82,0.15-1.39,0.82-1.16,1.64
	c0.15,0.6,0.62,1.03,1.76,0.85c1.57-0.25,1.85-1.33,1.85-2.45V107.38z M237.72,101.84c-1.02,0-2.01,0.64-2.52,1.7h-0.04v-1.53h-2.65
	v10.14h2.65v-6.29c0-0.82,0.32-1.71,1.93-1.71c1.8,0,1.91,1.07,1.91,1.97v6.02h2.65v-6.79
	C241.65,102.82,240.06,101.84,237.72,101.84z M263.57,102.01h-3.03l-3.31,3.95h-0.04v-7.45h-2.65v13.64h2.65v-3.17l1.1-1.18
	l2.4,4.34h3.1l-3.69-6.27L263.57,102.01z M273.97,112.16h-2.8c-0.19-0.25-0.3-0.66-0.28-1.01c-0.93,0.86-1.74,1.44-3.3,1.44
	c-2.08,0-3.1-1.16-3.03-3.13c0.06-1.42,0.63-2.81,2.97-3.2c0.98-0.04,2.04-0.26,2.67-0.47c0.47-0.17,0.7-0.66,0.66-1.14
	c0-0.63-0.53-0.92-1.74-0.92c-1.52,0-1.71,0.92-1.74,1.65h-2.5c0.04-3.24,2.84-3.53,4.24-3.53c1.02,0,1.91,0.17,2.42,0.37
	c1.02,0.41,1.83,1.23,1.83,2.84v5.54c-0.02,0.45,0.25,0.9,0.59,1.2V112.16z M270.87,107.38c-0.76,0.45-1.78,0.41-2.46,0.54
	c-0.81,0.15-1.38,0.82-1.15,1.64c0.15,0.6,0.62,1.03,1.76,0.85c1.57-0.25,1.86-1.33,1.86-2.45V107.38z M281.6,101.84
	c-0.84-0.13-1.44,0.21-1.89,0.54c-0.93,0.64-1.06,0.99-1.23,1.59h-0.04v-1.97h-2.65v10.14h2.65v-5.71c0.32-2.21,2.03-2.06,3.16-1.93
	V101.84z M286.71,101.85c1.72-0.08,2.52,0.69,2.9,1.55h0.04v-4.88h2.65v13.69h-2.65v-1.07h-0.04c-0.72,1.05-1.76,1.41-2.6,1.44
	c-1.85,0.07-2.91-0.66-3.71-2.34c-0.41-0.91-0.72-1.83-0.77-2.82c-0.06-0.99,0.13-2.06,0.66-3.27
	C284.06,102.18,285.75,101.9,286.71,101.85z M287.43,104.11c-0.62,0-1.33,0.3-1.78,1.14c-0.19,0.39-0.45,1.14-0.45,1.98
	c0,0.84,0.27,1.59,0.45,1.98c0.45,0.84,1.15,1.14,1.78,1.14c0.6,0,1.3-0.3,1.76-1.14c0.19-0.4,0.45-1.14,0.45-1.98
	c0-0.84-0.26-1.59-0.45-1.98C288.74,104.41,288.04,104.11,287.43,104.11z M295.55,111.35c-1.02-0.92-1.51-2.49-1.51-4.14
	c0-1.64,0.49-3.22,1.51-4.13c0.91-0.82,2.22-1.23,3.54-1.23s2.63,0.41,3.54,1.23c1.02,0.92,1.52,2.49,1.52,4.13
	c0,1.65-0.5,3.22-1.52,4.14c-0.91,0.82-2.22,1.23-3.54,1.23S296.46,112.17,295.55,111.35z M296.7,107.21c0,0.84,0.28,1.59,0.49,1.98
	c0.49,0.84,1.23,1.14,1.89,1.14c0.66,0,1.4-0.3,1.89-1.14c0.21-0.39,0.5-1.14,0.5-1.98c0-0.84-0.29-1.59-0.5-1.98
	c-0.49-0.84-1.23-1.14-1.89-1.14c-0.66,0-1.4,0.3-1.89,1.14C296.99,105.62,296.7,106.37,296.7,107.21z M311.11,101.84
	c-1.03,0-2.01,0.64-2.52,1.7h-0.04v-1.53h-2.65v10.14h2.65v-6.29c0-0.82,0.32-1.71,1.93-1.71c1.8,0,1.92,1.07,1.92,1.97v6.02h2.65
	v-6.79C315.04,102.82,313.46,101.84,311.11,101.84z M243.76,112.17h0.48l8.15-13.7h-0.51L243.76,112.17z M269.59,116.99h-3.92v-2.75
	h-1.29v6.66h1.29v-2.95h3.92v2.95h1.29v-6.66h-1.29V116.99z M276.79,114.24l3.43,6.66h-1.46l-0.78-1.6h-4l-0.78,1.6h-1.38l3.45-6.66
	H276.79z M277.53,118.39l-1.54-3.19l-1.55,3.19H277.53z M287.19,120.07c0.06,0.36,0.15,0.7,0.22,0.83h-1.37
	c-0.08-0.36-0.16-0.86-0.24-1.15l-0.2-0.82c-0.19-0.76-0.47-0.86-1.45-0.86h-1.71v2.82h-1.29v-6.66h3.5c1.74,0,2.47,0.7,2.47,1.79
	c0,1.19-1.29,1.53-1.59,1.58c0.8,0.06,1.24,0.29,1.42,1.32L287.19,120.07z M285.8,116.15c0-0.69-0.43-0.98-1.45-0.98h-1.91v1.97
	h1.91C285.37,117.15,285.8,116.87,285.8,116.15z M293.42,119.83l-2.58-5.59h-2.04v6.66h1.15v-5.82l2.71,5.82h1.41l2.71-5.82v5.82
	h1.25v-6.66h-2.03L293.42,119.83z M303.93,114.24l3.42,6.66h-1.46l-0.77-1.6h-4.01l-0.78,1.6h-1.38l3.45-6.66H303.93z
	 M304.67,118.39l-1.54-3.19l-1.55,3.19H304.67z M313.79,119.76l-3.74-5.52h-1.76v6.66h1.16v-5.52l3.74,5.52h1.77v-6.66h-1.16V119.76
	z M258.21,119.49c0,0.86-0.66,1.41-1.45,1.41c-0.6,0-0.94-0.21-1.14-0.49c0,0.09-0.02,0.32-0.02,0.39h-0.64
	c0-0.14,0.02-0.44,0.02-0.55v-3.19h0.67v1.54c0.25-0.28,0.57-0.5,1.13-0.5C257.55,118.1,258.21,118.58,258.21,119.49z M257.5,119.49
	c0-0.6-0.34-0.96-0.93-0.96c-0.56,0-0.93,0.36-0.93,0.97c0,0.6,0.35,0.95,0.93,0.95C257.14,120.45,257.5,120.07,257.5,119.49z
	 M260.27,120.23l-1.01-2.04h-0.77l1.41,2.61l-0.55,0.99h0.74l1.84-3.59h-0.71L260.27,120.23z M316.85,102.33l0.39,0.61h-0.24
	l-0.36-0.6h-0.24v0.6h-0.21v-1.39h0.53c0.33,0,0.49,0.12,0.49,0.39C317.21,102.19,317.05,102.3,316.85,102.33z M316.65,102.16
	c0.18,0,0.34-0.01,0.34-0.23c0-0.17-0.16-0.2-0.3-0.2h-0.29v0.43H316.65z M317.87,102.24c0,0.7-0.56,1.21-1.21,1.21
	c-0.66,0-1.21-0.51-1.21-1.21c0-0.69,0.56-1.2,1.21-1.2C317.31,101.04,317.87,101.55,317.87,102.24z M317.63,102.24
	c0-0.57-0.43-1-0.97-1c-0.55,0-0.98,0.43-0.98,1c0,0.58,0.43,1.01,0.98,1.01C317.2,103.25,317.63,102.82,317.63,102.24z
	 M7.18,105.84c0.76-1.08,1-1.86,1-2.72c0-2.18-1.67-3.78-3.9-3.78c-1.57,0-2.46,0.69-2.99,1.29c-0.49,0.57-0.89,1.35-0.94,2.63h1.4
	c0.02-0.65,0.17-1.12,0.42-1.5c0.47-0.72,1.21-1.12,2.1-1.12c1.5,0,2.52,1.04,2.52,2.47c0,0.51-0.13,1.12-0.7,1.94
	c-0.3,0.46-1.16,1.46-1.48,1.84L0,112.23h8.16v-1.29H2.82l2.63-2.99C5.96,107.36,6.65,106.58,7.18,105.84z M20.11,99.55h-1.89
	l-5.38,5.44v-5.44h-1.4v12.68h1.4v-5.46l0.36-0.36l5.17,5.82h1.93l-6.1-6.77L20.11,99.55z M27.92,104.15c-0.63,0-1.35,0.08-2.14,0.4
	v1.33c0.74-0.34,1.55-0.51,2.2-0.51c1.34,0,2.52,0.78,2.82,2.22h-4.15v1.22h4.15c-0.15,1.48-1.38,2.43-2.8,2.43
	c-0.64,0-1.49-0.17-2.21-0.55v1.33c0.32,0.13,1.06,0.44,2.24,0.44c2.5,0,4.19-1.75,4.19-4.13C32.2,105.9,30.63,104.15,27.92,104.15z
	 M40.49,104.34h-1.67l-3.18,3.23v-3.23h-1.36v7.89h1.36v-3.06l0.42-0.4l3.07,3.46h1.78l-3.83-4.37L40.49,104.34z M50.15,108.33
	c0,2.17-1.38,4.13-3.77,4.13c-1.27,0-2.16-0.57-2.75-1.33v5.47h-1.36v-12.26h1.36v1.1c0.93-1.16,2.12-1.29,2.69-1.29
	C48.79,104.15,50.15,106.2,50.15,108.33z M48.75,108.33c0-1.94-1.31-2.97-2.57-2.97c-1.27,0-2.61,1.05-2.61,2.95
	c0,1.61,1.02,2.93,2.63,2.93C47.79,111.24,48.75,109.91,48.75,108.33z M58.26,104.34h1.37v7.89h-1.37v-1.1
	c-0.45,0.59-1.3,1.33-2.69,1.33c-1.99,0-3.83-1.41-3.83-4.18c0-2.72,1.82-4.13,3.83-4.13c1.51,0,2.33,0.84,2.69,1.31V104.34z
	 M58.34,108.29c0-2.04-1.4-2.93-2.61-2.93c-1.35,0-2.57,0.99-2.57,2.91c0,1.69,0.95,2.97,2.57,2.97
	C57.39,111.24,58.34,109.85,58.34,108.29z M67.27,107.57h-3.71v-3.23H62.2v7.89h1.36v-3.4h3.71v3.4h1.36v-7.89h-1.36V107.57z
	 M85.65,105.94c0,3.67,2.78,6.52,6.53,6.52c0.95,0,2.41-0.23,3.81-1.24v-1.75c-0.23,0.23-0.74,0.7-1.46,1.06
	c-0.66,0.34-1.5,0.59-2.35,0.59c-2.31,0-5.09-1.73-5.09-5.17c0-2.93,2.16-5.29,5.07-5.29c0.74,0,1.51,0.19,2.18,0.49
	c0.64,0.3,1.25,0.78,1.65,1.18v-1.75c-1.51-1.16-2.97-1.26-3.73-1.26C88.47,99.33,85.65,102.15,85.65,105.94z M106.06,108.31
	c0,2.4-1.78,4.15-4.17,4.15c-2.38,0-4.16-1.75-4.16-4.15s1.76-4.16,4.16-4.16C104.3,104.15,106.06,105.91,106.06,108.31z
	 M104.66,108.31c0-1.94-1.32-2.95-2.77-2.95c-1.44,0-2.76,1.03-2.76,2.95c0,1.94,1.36,2.93,2.76,2.93
	C103.32,111.24,104.66,110.23,104.66,108.31z M112.6,107.85c0.4-0.25,0.89-0.72,0.89-1.65c0-0.55-0.17-1.06-0.68-1.5
	c-0.59-0.49-1.23-0.55-1.85-0.55c-0.51,0-1.12,0.08-1.73,0.44c-0.38,0.23-0.74,0.61-1,0.99l0.95,0.78c0.19-0.34,0.44-0.55,0.64-0.69
	c0.4-0.25,0.78-0.3,1.08-0.3c0.25,0,0.68,0,1.01,0.28c0.21,0.17,0.34,0.47,0.34,0.82c0,0.36-0.21,0.59-0.42,0.72
	c-0.11,0.08-0.4,0.21-1.02,0.21h-0.66v1.26h0.79c0.36,0,0.89,0,1.29,0.27c0.27,0.17,0.47,0.47,0.47,0.91c0,0.57-0.29,0.93-0.55,1.1
	c-0.42,0.29-1.02,0.3-1.32,0.3c-0.42,0-0.85-0.08-1.29-0.4c-0.43-0.33-0.62-0.71-0.7-0.9l-1.17,0.49c0.23,0.49,0.59,1.01,1.04,1.35
	c0.66,0.52,1.4,0.67,2.1,0.67c0.85,0,1.67-0.19,2.23-0.61c0.64-0.47,1.02-1.22,1.02-2.03c0-0.61-0.23-1.1-0.55-1.45
	C113.32,108.16,112.99,107.95,112.6,107.85z M122.24,110.97h1.17v3.35h-1.25v-2.09h-5.98v2.09h-1.25v-3.35
	c0.68-0.02,1.19-0.48,1.46-1.03c0.26-0.55,0.32-1.29,0.32-2.09v-3.52h5.53V110.97z M120.87,105.59h-2.8v2.97
	c0,0.91-0.21,1.77-0.95,2.42h3.75V105.59z M130.87,104.34h1.37v7.89h-1.37v-1.1c-0.45,0.59-1.3,1.33-2.69,1.33
	c-1.99,0-3.83-1.41-3.83-4.18c0-2.72,1.82-4.13,3.83-4.13c1.51,0,2.33,0.84,2.69,1.31V104.34z M130.95,108.29
	c0-2.04-1.4-2.93-2.61-2.93c-1.35,0-2.58,0.99-2.58,2.91c0,1.69,0.95,2.97,2.58,2.97C130,111.24,130.95,109.85,130.95,108.29z
	 M139.89,107.57h-3.71v-3.23h-1.36v7.89h1.36v-3.4h3.71v3.4h1.36v-7.89h-1.36V107.57z M151.67,108.31c0,2.4-1.78,4.15-4.17,4.15
	c-2.39,0-4.17-1.75-4.17-4.15s1.76-4.16,4.17-4.16C149.91,104.15,151.67,105.91,151.67,108.31z M150.27,108.31
	c0-1.94-1.32-2.95-2.76-2.95c-1.44,0-2.76,1.03-2.76,2.95c0,1.94,1.36,2.93,2.76,2.93C148.93,111.24,150.27,110.23,150.27,108.31z
	 M159.08,108.31c0-1.92,1.33-2.95,2.78-2.95c0.7,0,1.74,0.27,2.46,1.18v-1.64c-0.38-0.27-1.19-0.76-2.44-0.76
	c-2.42,0-4.2,1.77-4.2,4.18c0,2.38,1.76,4.13,4.2,4.13c0.74,0,1.65-0.19,2.5-0.82V110c-0.72,0.88-1.72,1.24-2.54,1.24
	C160.44,111.24,159.08,110.23,159.08,108.31z"/>
</svg>
