<?xml version="1.0" encoding="utf-8"?>
<!-- Generator: Adobe Illustrator 21.1.0, SVG Export Plug-In . SVG Version: 6.00 Build 0)  -->
<svg version="1.1" id="Слой_1" xmlns="http://www.w3.org/2000/svg" xmlns:xlink="http://www.w3.org/1999/xlink" x="0px" y="0px"
	 viewBox="0 0 148 35" enable-background="new 0 0 148 35" xml:space="preserve">
<path fill="#FFFFFF" d="M66.69,14H70v15h-3.31v-6.26h-7.37V29H56V14h3.31v6.08h7.37V14z M87,14h-3.4v8.89
	c0,2.62-0.81,3.72-3.61,3.72c-2.8,0-3.63-1.09-3.63-3.72L76.37,14H73v8.97c0,1.9,0.18,3.19,0.92,3.99C75.25,28.4,77.19,29,80,29
	c2.8,0,4.74-0.6,6.06-2.05c0.72-0.78,0.94-2.09,0.94-3.99V14z M97.24,14L104,29h-3.71l-1.46-3.57h-6.87L90.53,29H87l6.71-14.99
	L97.24,14z M97.75,22.75l-2.41-5.76l-2.32,5.76H97.75z M120.06,25.54L116.46,14h-3.98l-3.13,11.54L105.63,14H102l5.35,15h4.12
	l2.99-11.19L117.89,29h4.14L127,14h-3.47L120.06,25.54z M128,21.77c0,2.72,0.79,4.68,2.42,5.92c1.54,1.17,3.02,1.31,4.94,1.31H141
	v-2.62h-5.47c-2.63,0-3.76-0.98-3.78-3.68H141V20.1h-9.23l-0.01,0.01c0.13-2.36,1.35-3.49,3.75-3.49H141V14h-5.55
	C130.36,14,128,16.47,128,21.77z M144,14v15h4V14H144z M7.85,6c0,0-4.13,3.83-3.83,7.65c0.14,1.79,1,3.44,2.39,4.61
	c3.6,3.42,12.32,7.74,14.34,8.73c0.02,0,0.13,0.03,0.2-0.04c0.05-0.04,0.07-0.11,0.04-0.17C17.45,19.38,13.04,12.41,7.85,6z
	 M18.82,30L5,30.51c1.5,2.84,4.02,5.05,6.65,4.37c1.81-0.49,5.91-3.53,7.27-4.56c0.11-0.1,0.07-0.19,0.07-0.19
	C18.97,30.05,18.9,30,18.82,30z M18.93,28.67C12.63,24.46,0.41,18,0.41,18c-1.37,4.2,0.78,8.74,4.92,10.39
	c0.88,0.34,1.8,0.54,2.74,0.59c0.22,0.04,8.53,0,10.76,0c0.06-0.01,0.12-0.05,0.15-0.1C19.05,28.77,18.93,28.67,18.93,28.67z
	 M17.99,0.43C15.77,0.99,14,2.65,13.31,4.81c-0.7,2.14,0.02,4.5,0.02,4.5c1.26,5.58,7.47,14.7,8.81,16.62
	c0.09,0.09,0.17,0.06,0.17,0.06c0.08-0.02,0.14-0.1,0.13-0.18C24.49,5.41,20.28,0,20.28,0C19.66,0.05,17.99,0.43,17.99,0.43z
	 M33.71,4.81c-0.7-2.17-2.49-3.83-4.73-4.38c0,0-1.09-0.27-2.25-0.44c0,0-4.23,5.41-2.17,25.83c0,0.07,0.05,0.13,0.11,0.16
	c0.08,0.03,0.17,0,0.21-0.08c1.37-1.97,7.55-11.06,8.81-16.6C33.69,9.31,34.37,6.62,33.71,4.81z M28.16,30
	c-0.07,0.01-0.12,0.05-0.16,0.12c-0.02,0.07,0.01,0.14,0.05,0.19c1.32,1.01,5.33,3.98,7.27,4.56c0,0,3.57,1.29,6.67-4.37L28.16,30
	L28.16,30z M28.08,28.69c-0.07,0.04-0.1,0.13-0.07,0.21c0,0,0.06,0.11,0.15,0.11c2.26,0,10.81,0,11.02-0.03
	c0.85-0.06,1.68-0.25,2.47-0.56c2.06-0.8,3.72-2.37,4.62-4.38c0.84-1.91,0.96-4.05,0.32-6.04C46.59,18,34.39,24.48,28.08,28.69z
	 M43.99,13.63C44.25,9.67,40.15,6,40.15,6c-5.19,6.4-9.6,13.36-13.14,20.75c-0.04,0.08-0.02,0.17,0.05,0.23
	c0.06,0.04,0.13,0.04,0.19,0c2.08-1.01,10.75-5.3,14.34-8.7C41.59,18.27,43.87,16.49,43.99,13.63z"/>
</svg>
